<?xml version="1.0" encoding="UTF-8" standalone="no"?>
<!-- Uploaded to: SVG Repo, www.svgrepo.com, Generator: SVG Repo Mixer Tools -->

<svg
   width="800px"
   height="800px"
   viewBox="0 0 24 24"
   fill="none"
   version="1.1"
   id="svg4"
   sodipodi:docname="dark-mode.svg"
   inkscape:version="1.4.2 (ebf0e940d0, 2025-05-08)"
   xmlns:inkscape="http://www.inkscape.org/namespaces/inkscape"
   xmlns:sodipodi="http://sodipodi.sourceforge.net/DTD/sodipodi-0.dtd"
   xmlns="http://www.w3.org/2000/svg"
   xmlns:svg="http://www.w3.org/2000/svg">
  <sodipodi:namedview
     id="namedview4"
     pagecolor="#ffffff"
     bordercolor="#000000"
     borderopacity="0.25"
     inkscape:showpageshadow="2"
     inkscape:pageopacity="0.0"
     inkscape:pagecheckerboard="0"
     inkscape:deskcolor="#d1d1d1"
     inkscape:zoom="2.24375"
     inkscape:cx="400"
     inkscape:cy="400"
     inkscape:window-width="3834"
     inkscape:window-height="2112"
     inkscape:window-x="0"
     inkscape:window-y="42"
     inkscape:window-maximized="1"
     inkscape:current-layer="g3" />
  <g
     clip-path="url(#a)"
     stroke="#000000"
     stroke-width="1.5"
     stroke-miterlimit="10"
     id="g3">
    <path
       d="M5 12H1M23 12h-4M7.05 7.05 4.222 4.222M19.778 19.778 16.95 16.95M7.05 16.95l-2.828 2.828M19.778 4.222 16.95 7.05"
       stroke-linecap="round"
       id="path1" />
    <path
       d="m 12,16 c 5.333331,0 5.333331,-8 0,-8 -5.333331,0 -5.333331,8 0,8 z"
       fill="#000000"
       fill-opacity="0.16"
       id="path2"
       sodipodi:nodetypes="sss" />
    <path
       d="M12 19v4M12 1v4"
       stroke-linecap="round"
       id="path3" />
    <path
       style="fill:#000000;stroke-width:0.021334"
       d="M 11.69311,15.47497 C 10.802142,15.413353 10.085031,15.107216 9.5327111,14.552689 9.354808,14.374075 9.2616923,14.258729 9.120749,14.042375 8.4215247,12.969039 8.3543684,11.443504 8.9547598,10.271733 9.4555671,9.2943172 10.317586,8.7137059 11.479552,8.5711619 c 0.253013,-0.031038 0.734365,-0.031038 0.987378,0 1.03697,0.1272099 1.825328,0.5962146 2.348347,1.3970642 0.774815,1.1863999 0.781036,2.8763669 0.01497,4.0662909 -0.140071,0.217572 -0.236222,0.337202 -0.416471,0.518172 -0.507282,0.509309 -1.157823,0.811204 -1.939773,0.900187 -0.243417,0.0277 -0.56731,0.03687 -0.780889,0.0221 z"
       id="path5" />
  </g>
  <defs
     id="defs4">
    <clipPath
       id="a">
      <path
         fill="#ffffff"
         d="M0 0h24v24H0z"
         id="path4" />
    </clipPath>
  </defs>
</svg>
